# xmcd
# 
# Track frame offsets:
#     150
#     15940
#     33555
#     48157
#     64595
#     83825
#     100102
#     126427
#     146320
#     164922
# 
# Disc length: 2497
# 
# Revision: 9
# Processed by: cddbd v1.5.2PL0 Copyright (c) Steve Scherf et al.
# Submitted via: fre:ac v1.0.31
# 
DISCID=7d09bf0a
DTITLE=The Blues Brothers Band - Red, White And Blues
DYEAR=1992
DGENRE=Blues
TTITLE0=You Got The Bucks
TTITLE1=Red, White and Blues
TTITLE2=Can't Play The Blues (In An Air-Conditioned Room)
TTITLE3=Early In The Morning
TTITLE4=One Track Train
TTITLE5=Boogie Thing
TTITLE6=Neverfound A Girl
TTITLE7=Trick Bag
TTITLE8=Take You And Show You
TTITLE9=Big Bird
EXTD=YEAR: 1992
EXTT0=
EXTT1=
EXTT2=
EXTT3=
EXTT4=
EXTT5=
EXTT6=
EXTT7=
EXTT8=
EXTT9=
PLAYORDER=
